<svg width="16" height="16" viewBox="0 0 16 16" fill="none" xmlns="http://www.w3.org/2000/svg">
<path d="M13.7275 8.784C13.7595 8.528 13.7835 8.272 13.7835 8C13.7835 7.728 13.7595 7.472 13.7275 7.216L15.4155 5.896C15.5675 5.776 15.6075 5.56 15.5115 5.384L13.9115 2.616C13.8395 2.488 13.7035 2.416 13.5595 2.416C13.5115 2.416 13.4635 2.424 13.4235 2.44L11.4315 3.24C11.0155 2.92 10.5675 2.656 10.0795 2.456L9.77547 0.336C9.75147 0.144 9.58347 0 9.38347 0H6.18347C5.98347 0 5.81547 0.144 5.79147 0.336L5.48747 2.456C4.99947 2.656 4.55147 2.928 4.13547 3.24L2.14347 2.44C2.09547 2.424 2.04747 2.416 1.99947 2.416C1.86347 2.416 1.72747 2.488 1.65547 2.616L0.0554653 5.384C-0.0485348 5.56 -0.000534642 5.776 0.151465 5.896L1.83947 7.216C1.80747 7.472 1.78347 7.736 1.78347 8C1.78347 8.264 1.80747 8.528 1.83947 8.784L0.151465 10.104C-0.000534642 10.224 -0.0405348 10.44 0.0554653 10.616L1.65547 13.384C1.72747 13.512 1.86347 13.584 2.00747 13.584C2.05547 13.584 2.10347 13.576 2.14347 13.56L4.13547 12.76C4.55147 13.08 4.99947 13.344 5.48747 13.544L5.79147 15.664C5.81547 15.856 5.98347 16 6.18347 16H9.38347C9.58347 16 9.75147 15.856 9.77547 15.664L10.0795 13.544C10.5675 13.344 11.0155 13.072 11.4315 12.76L13.4235 13.56C13.4715 13.576 13.5195 13.584 13.5675 13.584C13.7035 13.584 13.8395 13.512 13.9115 13.384L15.5115 10.616C15.6075 10.44 15.5675 10.224 15.4155 10.104L13.7275 8.784ZM12.1435 7.416C12.1755 7.664 12.1835 7.832 12.1835 8C12.1835 8.168 12.1675 8.344 12.1435 8.584L12.0315 9.488L12.7435 10.048L13.6075 10.72L13.0475 11.688L12.0315 11.28L11.1995 10.944L10.4795 11.488C10.1355 11.744 9.80747 11.936 9.47947 12.072L8.63147 12.416L8.50347 13.32L8.34347 14.4H7.22347L7.07147 13.32L6.94347 12.416L6.09547 12.072C5.75147 11.928 5.43147 11.744 5.11147 11.504L4.38347 10.944L3.53547 11.288L2.51947 11.696L1.95947 10.728L2.82347 10.056L3.53547 9.496L3.42347 8.592C3.39947 8.344 3.38347 8.16 3.38347 8C3.38347 7.84 3.39947 7.656 3.42347 7.416L3.53547 6.512L2.82347 5.952L1.95947 5.28L2.51947 4.312L3.53547 4.72L4.36747 5.056L5.08747 4.512C5.43147 4.256 5.75947 4.064 6.08747 3.928L6.93547 3.584L7.06347 2.68L7.22347 1.6H8.33547L8.48747 2.68L8.61547 3.584L9.46347 3.928C9.80747 4.072 10.1275 4.256 10.4475 4.496L11.1755 5.056L12.0235 4.712L13.0395 4.304L13.5995 5.272L12.7435 5.952L12.0315 6.512L12.1435 7.416ZM7.78347 4.8C6.01547 4.8 4.58347 6.232 4.58347 8C4.58347 9.768 6.01547 11.2 7.78347 11.2C9.55147 11.2 10.9835 9.768 10.9835 8C10.9835 6.232 9.55147 4.8 7.78347 4.8ZM7.78347 9.6C6.90347 9.6 6.18347 8.88 6.18347 8C6.18347 7.12 6.90347 6.4 7.78347 6.4C8.66347 6.4 9.38347 7.12 9.38347 8C9.38347 8.88 8.66347 9.6 7.78347 9.6Z" fill="current"/>
</svg>
