<svg width="22" height="22" viewBox="0 0 22 22" fill="none" xmlns="http://www.w3.org/2000/svg">
<path d="M11 14.5C11.9667 14.5 12.7917 14.1583 13.475 13.475C14.1583 12.7917 14.5 11.9667 14.5 11C14.5 10.0333 14.1583 9.20833 13.475 8.525C12.7917 7.84167 11.9667 7.5 11 7.5C10.0333 7.5 9.20833 7.84167 8.525 8.525C7.84167 9.20833 7.5 10.0333 7.5 11C7.5 11.9667 7.84167 12.7917 8.525 13.475C9.20833 14.1583 10.0333 14.5 11 14.5ZM11 16C9.61667 16 8.4375 15.5125 7.4625 14.5375C6.4875 13.5625 6 12.3833 6 11C6 9.61667 6.4875 8.4375 7.4625 7.4625C8.4375 6.4875 9.61667 6 11 6C12.3833 6 13.5625 6.4875 14.5375 7.4625C15.5125 8.4375 16 9.61667 16 11C16 12.3833 15.5125 13.5625 14.5375 14.5375C13.5625 15.5125 12.3833 16 11 16ZM0.75 11.75C0.533333 11.75 0.354167 11.6792 0.2125 11.5375C0.0708333 11.3958 0 11.2167 0 11C0 10.7833 0.0708333 10.6042 0.2125 10.4625C0.354167 10.3208 0.533333 10.25 0.75 10.25H3.25C3.46667 10.25 3.64583 10.3208 3.7875 10.4625C3.92917 10.6042 4 10.7833 4 11C4 11.2167 3.92917 11.3958 3.7875 11.5375C3.64583 11.6792 3.46667 11.75 3.25 11.75H0.75ZM18.75 11.75C18.5333 11.75 18.3542 11.6792 18.2125 11.5375C18.0708 11.3958 18 11.2167 18 11C18 10.7833 18.0708 10.6042 18.2125 10.4625C18.3542 10.3208 18.5333 10.25 18.75 10.25H21.25C21.4667 10.25 21.6458 10.3208 21.7875 10.4625C21.9292 10.6042 22 10.7833 22 11C22 11.2167 21.9292 11.3958 21.7875 11.5375C21.6458 11.6792 21.4667 11.75 21.25 11.75H18.75ZM11 4C10.7833 4 10.6042 3.92917 10.4625 3.7875C10.3208 3.64583 10.25 3.46667 10.25 3.25V0.75C10.25 0.533333 10.3208 0.354167 10.4625 0.2125C10.6042 0.0708333 10.7833 0 11 0C11.2167 0 11.3958 0.0708333 11.5375 0.2125C11.6792 0.354167 11.75 0.533333 11.75 0.75V3.25C11.75 3.46667 11.6792 3.64583 11.5375 3.7875C11.3958 3.92917 11.2167 4 11 4ZM11 22C10.7833 22 10.6042 21.9292 10.4625 21.7875C10.3208 21.6458 10.25 21.4667 10.25 21.25V18.75C10.25 18.5333 10.3208 18.3542 10.4625 18.2125C10.6042 18.0708 10.7833 18 11 18C11.2167 18 11.3958 18.0708 11.5375 18.2125C11.6792 18.3542 11.75 18.5333 11.75 18.75V21.25C11.75 21.4667 11.6792 21.6458 11.5375 21.7875C11.3958 21.9292 11.2167 22 11 22ZM5 6.05L3.575 4.65C3.425 4.5 3.35417 4.32083 3.3625 4.1125C3.37083 3.90417 3.44167 3.725 3.575 3.575C3.725 3.425 3.90417 3.35 4.1125 3.35C4.32083 3.35 4.5 3.425 4.65 3.575L6.05 5C6.18333 5.15 6.25 5.325 6.25 5.525C6.25 5.725 6.18333 5.89167 6.05 6.025C5.91667 6.175 5.74583 6.25 5.5375 6.25C5.32917 6.25 5.15 6.18333 5 6.05ZM17.35 18.425L15.95 17C15.8167 16.85 15.75 16.6708 15.75 16.4625C15.75 16.2542 15.825 16.0833 15.975 15.95C16.1083 15.8 16.275 15.725 16.475 15.725C16.675 15.725 16.85 15.8 17 15.95L18.425 17.35C18.575 17.5 18.6458 17.6792 18.6375 17.8875C18.6292 18.0958 18.5583 18.275 18.425 18.425C18.275 18.575 18.0958 18.65 17.8875 18.65C17.6792 18.65 17.5 18.575 17.35 18.425ZM15.95 6.05C15.8 5.9 15.725 5.725 15.725 5.525C15.725 5.325 15.8 5.15 15.95 5L17.35 3.575C17.5 3.425 17.6792 3.35417 17.8875 3.3625C18.0958 3.37083 18.275 3.44167 18.425 3.575C18.575 3.725 18.65 3.90417 18.65 4.1125C18.65 4.32083 18.575 4.5 18.425 4.65L17 6.05C16.8667 6.18333 16.6958 6.25 16.4875 6.25C16.2792 6.25 16.1 6.18333 15.95 6.05ZM3.575 18.425C3.425 18.275 3.35 18.0958 3.35 17.8875C3.35 17.6792 3.425 17.5 3.575 17.35L5 15.95C5.15 15.8 5.325 15.725 5.525 15.725C5.725 15.725 5.9 15.8 6.05 15.95C6.2 16.1 6.275 16.275 6.275 16.475C6.275 16.675 6.2 16.85 6.05 17L4.65 18.425C4.5 18.575 4.32083 18.6458 4.1125 18.6375C3.90417 18.6292 3.725 18.5583 3.575 18.425Z" fill="#D4D7DD"/>
</svg>
